<svg xmlns="http://www.w3.org/2000/svg" width="20" height="20" viewBox="0 0 20 20"><defs><style>.a{fill:rgba(0,0,0,0);}.b{fill:#262729;}</style></defs><g transform="translate(20 20) rotate(180)"><rect class="a" width="20" height="20" transform="translate(0 0)"/><path class="b" d="M0,5.592a.742.742,0,0,1,.743-.737h8.3l-3.62-3.6a.729.729,0,0,1,0-1.038.745.745,0,0,1,1.048,0l4.891,4.861a.728.728,0,0,1,0,1.038l-4.9,4.854a.745.745,0,0,1-1.048,0,.737.737,0,0,1,0-1.046L9.046,6.329H.743A.742.742,0,0,1,0,5.592Z" transform="translate(3.5 3.907)"/></g></svg>